<svg width="500" height="250" viewBox="0 0 500 250" fill="none" xmlns="http://www.w3.org/2000/svg">
<rect width="500" height="250" fill="white"/>
<rect width="250" height="250" fill="#222222"/>
<path d="M196.118 52.7516C177.982 26.6271 141.876 18.9727 115.92 35.4462L70.1633 64.7323C57.6843 72.553 49.0322 85.3657 46.5364 99.8424C44.3734 111.989 46.2037 124.469 52.0272 135.285C48.0339 141.276 45.3717 147.932 44.207 154.92C41.5448 169.73 45.039 185.038 53.6911 197.185C71.9936 223.31 107.933 230.964 133.889 214.491L179.646 185.371C192.125 177.55 200.777 164.738 203.272 150.261C205.435 138.114 203.605 125.634 197.782 114.818C201.775 108.828 204.437 102.172 205.602 95.1832C208.43 80.2074 204.936 64.8987 196.118 52.7516Z" fill="#00D8FF"/>
<path d="M111.427 199.681C96.6188 203.509 81.1449 197.685 72.4928 185.205C67.1684 177.883 65.1718 168.731 66.6693 159.746C67.002 158.248 67.3348 156.917 67.6676 155.419L68.4995 152.757L70.8289 154.421C76.3197 158.415 82.3096 161.41 88.7987 163.407L90.4625 163.906L90.2961 165.57C90.1297 167.899 90.7953 170.395 92.1264 172.392C94.7886 176.219 99.4474 178.05 103.94 176.885C104.938 176.552 105.936 176.219 106.768 175.72L152.358 146.6C154.688 145.103 156.185 142.94 156.684 140.277C157.183 137.615 156.518 134.786 155.02 132.623C152.358 128.796 147.699 127.132 143.207 128.297C142.209 128.629 141.21 128.962 140.378 129.461L122.908 140.61C120.079 142.44 116.918 143.772 113.59 144.604C98.7818 148.431 83.3079 142.607 74.6558 130.127C69.4978 122.805 67.3348 113.653 68.9987 104.668C70.4961 96.0152 75.8205 88.1945 83.3079 83.5353L129.064 54.4156C131.893 52.5852 135.054 51.254 138.382 50.2556C153.19 46.4285 168.664 52.2524 177.316 64.7323C182.641 72.0538 184.637 81.2058 183.14 90.1913C182.807 91.6889 182.474 93.02 181.975 94.5176L181.143 97.18L178.814 95.516C173.323 91.5225 167.333 88.5273 160.844 86.5305L159.18 86.0313L159.346 84.3673C159.513 82.0377 158.847 79.5418 157.516 77.545C154.854 73.7178 150.195 72.0538 145.703 73.2186C144.704 73.5514 143.706 73.8842 142.874 74.3834L97.2844 103.503C94.955 105.001 93.4575 107.164 92.9583 109.826C92.4592 112.489 93.1247 115.317 94.6222 117.481C97.2844 121.308 101.943 122.972 106.436 121.807C107.434 121.474 108.432 121.141 109.264 120.642L126.735 109.493C129.563 107.663 132.725 106.332 136.052 105.334C150.861 101.506 166.335 107.33 174.987 119.81C180.311 127.132 182.308 136.284 180.81 145.269C179.313 153.922 173.989 161.743 166.501 166.402L120.745 195.521C117.916 197.352 114.755 198.683 111.427 199.681Z" fill="#222222"/>
<rect x="250" width="250" height="250" fill="white"/>
<path d="M375.046 143.13C385.183 143.13 393.402 134.912 393.402 124.775C393.402 114.637 385.183 106.419 375.046 106.419C364.908 106.419 356.69 114.637 356.69 124.775C356.69 134.912 364.908 143.13 375.046 143.13Z" fill="#FF3E00"/>
<path fill-rule="evenodd" clip-rule="evenodd" d="M375.046 94.9952C350.794 94.9952 328.209 98.5312 311.862 104.226C302.206 107.592 294.937 111.67 290.236 115.691C285.364 119.858 284.206 123.082 284.206 124.769C284.206 126.566 285.519 130.092 290.776 134.593C295.82 138.913 303.56 143.268 313.718 146.74C329.711 152.205 351.502 154.912 375.046 154.912C397.914 154.912 419.279 152.042 435.167 146.778L435.168 146.777C445.731 143.279 453.797 138.931 459.06 134.598C464.549 130.079 465.88 126.559 465.88 124.769C465.88 123.146 464.697 119.894 459.596 115.638C454.704 111.556 447.2 107.439 437.384 104.06C437.384 104.06 437.384 104.06 437.383 104.06C421.082 98.4506 399.049 94.9952 375.046 94.9952ZM306.901 89.9883C325.203 83.6121 349.533 79.9175 375.046 79.9175C400.323 79.9175 424.075 83.535 442.29 89.8029L442.291 89.8032C453.269 93.5821 462.556 98.4703 469.256 104.061C475.747 109.477 480.958 116.564 480.958 124.769C480.958 133.217 475.512 140.583 468.644 146.238C461.549 152.079 451.675 157.194 439.909 161.09C422.034 167.012 398.959 169.99 375.046 169.99C350.619 169.99 327 167.213 308.842 161.007L308.842 161.007C297.398 157.096 287.831 151.922 280.969 146.046C274.32 140.352 269.128 133.017 269.128 124.769C269.128 116.707 274.075 109.674 280.435 104.233C286.965 98.6476 296.053 93.769 306.9 89.9886L306.901 89.9883Z" fill="#FF3E00"/>
<path fill-rule="evenodd" clip-rule="evenodd" d="M341.302 47.4112C334.641 44.925 330.929 45.5372 329.379 46.4347L329.376 46.4364C327.975 47.2472 325.753 49.8984 324.625 56.4458C323.543 62.725 323.74 71.2825 325.733 81.4708C325.733 81.4711 325.733 81.4714 325.733 81.4717C329.045 98.3913 337.092 119.19 349.117 139.966C361.266 160.955 375.64 178.727 388.758 190.02C396.512 196.691 403.684 200.938 409.519 202.991C415.565 205.118 418.937 204.505 420.398 203.66L420.399 203.659C421.953 202.76 424.347 199.859 425.61 193.053C426.821 186.524 426.714 177.643 424.629 167.112L424.628 167.11C421.351 150.54 412.771 130.324 400.975 109.947L400.974 109.947C389.516 90.1501 376.336 73.1022 363.817 61.9873L363.816 61.987C355.494 54.5973 347.689 49.7951 341.302 47.4112ZM342.527 143.781L336.068 147.52C348.849 169.6 364.235 188.805 378.923 201.449L378.924 201.449L378.925 201.45C387.634 208.943 396.41 214.363 404.516 217.214C412.411 219.992 420.974 220.747 427.95 216.71C435.089 212.58 438.837 204.411 440.434 195.804C442.083 186.922 441.768 176.049 439.42 164.185C439.419 164.184 439.419 164.184 439.419 164.183C435.697 145.365 426.261 123.532 414.024 102.394C402.043 81.6934 387.914 63.2187 373.827 50.7124C373.827 50.7123 373.827 50.7122 373.827 50.7121C364.558 42.4819 355.184 36.4987 346.574 33.2853C338.24 30.1745 329.138 29.1527 321.827 33.3851C321.826 33.3853 321.826 33.3856 321.825 33.3859C321.825 33.3862 321.824 33.3864 321.824 33.3867C314.723 37.496 311.201 45.5564 309.766 53.8863C308.285 62.4854 308.707 72.972 310.936 84.3662L310.936 84.3671C314.636 103.273 323.404 125.64 336.068 147.52L342.527 143.781Z" fill="#FF3E00"/>
<path fill-rule="evenodd" clip-rule="evenodd" d="M409.061 47.4112C415.722 44.925 419.434 45.5372 420.984 46.4347L420.987 46.4364C422.388 47.2472 424.61 49.8984 425.738 56.4458C426.82 62.725 426.623 71.2825 424.63 81.4708C424.63 81.4711 424.63 81.4714 424.63 81.4717C421.318 98.3913 413.271 119.19 401.246 139.966C389.096 160.955 374.723 178.727 361.605 190.02C353.851 196.691 346.679 200.938 340.844 202.991C334.798 205.118 331.426 204.505 329.964 203.66L329.963 203.659C328.41 202.76 326.016 199.859 324.753 193.053C323.542 186.524 323.649 177.643 325.734 167.112L325.734 167.11C329.012 150.54 337.592 130.324 349.388 109.947L349.389 109.947C360.847 90.1501 374.027 73.1022 386.546 61.9873L386.546 61.987C394.869 54.5973 402.674 49.7951 409.061 47.4112ZM407.836 143.781L414.295 147.52C401.514 169.6 386.128 188.805 371.44 201.449L371.439 201.449L371.438 201.45C362.729 208.943 353.953 214.363 345.847 217.214C337.952 219.992 329.389 220.747 322.413 216.71C315.274 212.58 311.526 204.411 309.929 195.804C308.28 186.922 308.594 176.049 310.943 164.185C310.943 164.184 310.944 164.184 310.944 164.183C314.666 145.365 324.102 123.532 336.339 102.394C348.32 81.6934 362.449 63.2187 376.535 50.7124C376.536 50.7123 376.536 50.7122 376.536 50.7121C385.805 42.4819 395.179 36.4987 403.788 33.2853C412.123 30.1745 421.224 29.1527 428.536 33.3851C428.537 33.3853 428.537 33.3856 428.538 33.3859C428.538 33.3862 428.539 33.3864 428.539 33.3867C435.64 37.496 439.162 45.5564 440.597 53.8863C442.078 62.4854 441.656 72.972 439.427 84.3662L439.427 84.3671C435.727 103.273 426.959 125.64 414.295 147.52L407.836 143.781Z" fill="#FF3E00"/>
</svg>
