<svg width="1000" height="500" viewBox="0 0 1000 500" fill="none" xmlns="http://www.w3.org/2000/svg">
<rect width="1000" height="500" fill="white"/>
<rect width="500" height="500" fill="#222222"/>
<path d="M392.236 105.503C355.964 53.2541 283.752 37.9455 231.839 70.8923L140.327 129.465C115.369 145.106 98.0646 170.731 93.073 199.685C88.747 223.979 92.4075 248.939 104.055 270.57C96.068 282.551 90.7436 295.863 88.4142 309.841C83.0898 339.459 90.078 370.077 107.382 394.371C143.987 446.62 215.866 461.929 267.779 428.982L359.291 370.742C384.249 355.101 401.553 329.476 406.545 300.522C410.871 276.228 407.211 251.268 395.564 229.636C403.55 217.656 408.874 204.344 411.204 190.366C416.861 160.415 409.873 129.797 392.236 105.503Z" fill="#00D8FF"/>
<path d="M222.854 399.363C193.238 407.017 162.29 395.369 144.986 370.41C134.337 355.766 130.344 337.463 133.339 319.492C134.004 316.496 134.67 313.834 135.335 310.839L136.999 305.514L141.658 308.842C152.639 316.829 164.619 322.82 177.597 326.813L180.925 327.812L180.592 331.14C180.259 335.799 181.591 340.791 184.253 344.784C189.577 352.439 198.895 356.099 207.88 353.77C209.876 353.104 211.873 352.439 213.537 351.44L304.717 293.201C309.375 290.205 312.37 285.879 313.369 280.554C314.367 275.23 313.036 269.572 310.041 265.246C304.717 257.591 295.399 254.263 286.414 256.593C284.417 257.259 282.421 257.924 280.757 258.923L245.816 281.22C240.159 284.881 233.836 287.543 227.18 289.207C197.564 296.861 166.616 285.214 149.312 260.254C138.996 245.611 134.67 227.307 137.997 209.336C140.992 192.03 151.641 176.389 166.616 167.071L258.128 108.831C263.785 105.17 270.108 102.508 276.764 100.511C306.38 92.8569 337.328 104.505 354.632 129.465C365.281 144.108 369.274 162.411 366.28 180.383C365.614 183.378 364.948 186.04 363.95 189.035L362.286 194.36L357.627 191.032C346.646 183.045 334.666 177.055 321.688 173.061L318.36 172.063L318.693 168.735C319.026 164.075 317.695 159.084 315.032 155.09C309.708 147.436 300.39 144.108 291.406 146.437C289.409 147.103 287.412 147.768 285.748 148.767L194.569 207.006C189.91 210.001 186.915 214.328 185.917 219.653C184.918 224.977 186.249 230.635 189.244 234.961C194.569 242.616 203.886 245.944 212.871 243.614C214.868 242.948 216.865 242.283 218.528 241.284L253.47 218.987C259.127 215.326 265.449 212.664 272.105 210.667C301.722 203.013 332.669 214.661 349.974 239.62C360.622 254.263 364.616 272.567 361.621 290.538C358.626 307.844 347.977 323.485 333.002 332.803L241.49 391.043C235.833 394.704 229.51 397.366 222.854 399.363Z" fill="#222222"/>
<rect x="500" width="500" height="500" fill="white"/>
<path d="M750.091 286.261C770.367 286.261 786.803 269.825 786.803 249.549C786.803 229.274 770.367 212.838 750.091 212.838C729.816 212.838 713.38 229.274 713.38 249.549C713.38 269.825 729.816 286.261 750.091 286.261Z" fill="#FF3E00"/>
<path fill-rule="evenodd" clip-rule="evenodd" d="M750.091 189.99C701.587 189.99 656.418 197.062 623.724 208.453C604.412 215.183 589.874 223.339 580.471 231.382C570.728 239.716 568.411 246.164 568.411 249.537C568.411 253.132 571.038 260.183 581.552 269.187C591.641 277.826 607.119 286.536 627.435 293.479C659.421 304.41 703.004 309.824 750.091 309.824C795.827 309.824 838.558 304.083 870.334 293.556L870.336 293.555C891.462 286.559 907.593 277.863 918.12 269.196C929.099 260.158 931.76 253.118 931.76 249.537C931.76 246.292 929.393 239.787 919.192 231.275C909.408 223.112 894.4 214.878 874.768 208.12C874.768 208.12 874.767 208.12 874.767 208.12C842.165 196.901 798.097 189.99 750.091 189.99ZM613.801 179.977C650.405 167.224 699.065 159.835 750.091 159.835C800.646 159.835 848.151 167.07 884.58 179.606L884.582 179.606C906.538 187.164 925.111 196.941 938.511 208.121C951.494 218.954 961.915 233.128 961.915 249.537C961.915 266.435 951.025 281.167 937.287 292.477C923.098 304.158 903.35 314.388 879.818 322.181C844.067 334.025 797.919 339.979 750.091 339.979C701.238 339.979 654.001 334.426 617.683 322.014L617.683 322.014C594.797 314.193 575.662 303.844 561.938 292.092C548.64 280.704 538.256 266.033 538.256 249.537C538.256 233.414 548.149 219.347 560.869 208.467C573.929 197.295 592.105 187.538 613.8 179.977L613.801 179.977Z" fill="#FF3E00"/>
<path fill-rule="evenodd" clip-rule="evenodd" d="M682.604 94.8223C669.282 89.85 661.859 91.0743 658.758 92.8695L658.753 92.8728C655.949 94.4945 651.505 99.7967 649.25 112.892C647.086 125.45 647.48 142.565 651.465 162.942C651.466 162.942 651.466 162.943 651.466 162.943C658.09 196.783 674.184 238.379 698.234 279.933C722.533 321.909 751.28 357.455 777.516 380.041C793.024 393.383 807.367 401.876 819.039 405.982C831.13 410.236 837.873 409.011 840.797 407.319L840.799 407.318C843.906 405.52 848.693 399.718 851.219 386.106C853.643 373.047 853.428 355.286 849.257 334.224L849.257 334.221C842.702 301.08 825.542 260.649 801.949 219.894L801.949 219.893C779.033 180.3 752.672 146.204 727.634 123.975L727.633 123.974C710.988 109.195 695.379 99.5903 682.604 94.8223ZM685.054 287.562L672.136 295.04C697.699 339.2 728.47 377.61 757.846 402.897L757.848 402.899L757.849 402.9C775.268 417.886 792.82 428.725 809.031 434.428C824.822 439.983 841.947 441.493 855.899 433.42C870.177 425.16 877.674 408.822 880.868 391.608C884.165 373.844 883.537 352.097 878.839 328.369C878.839 328.369 878.839 328.368 878.839 328.367C871.393 290.73 852.521 247.063 828.048 204.787C804.085 163.387 775.827 126.437 747.655 101.425C747.655 101.425 747.654 101.424 747.654 101.424C729.116 84.9637 710.368 72.9975 693.149 66.5707C676.48 60.3489 658.277 58.3054 643.653 66.7701C643.652 66.7706 643.651 66.7712 643.65 66.7717C643.649 66.7723 643.648 66.7729 643.647 66.7735C629.445 74.992 622.402 91.1128 619.532 107.773C616.569 124.971 617.414 145.944 621.871 168.732L621.872 168.734C629.273 206.546 646.809 251.281 672.135 295.039L685.054 287.562Z" fill="#FF3E00"/>
<path fill-rule="evenodd" clip-rule="evenodd" d="M818.122 94.8223C831.443 89.85 838.867 91.0743 841.967 92.8695L841.973 92.8728C844.777 94.4945 849.221 99.7967 851.476 112.892C853.639 125.45 853.246 142.565 849.26 162.942C849.26 162.942 849.26 162.943 849.26 162.943C842.636 196.783 826.542 238.379 802.492 279.933C778.193 321.909 749.446 357.455 723.209 380.041C707.702 393.383 693.358 401.876 681.687 405.982C669.596 410.236 662.852 409.011 659.929 407.319L659.927 407.318C656.82 405.52 652.033 399.718 649.507 386.106C647.083 373.047 647.298 355.286 651.468 334.224L651.469 334.221C658.024 301.08 675.184 260.649 698.777 219.894L698.777 219.893C721.693 180.3 748.054 146.204 773.092 123.975L773.093 123.974C789.738 109.195 805.347 99.5903 818.122 94.8223ZM815.672 287.562L828.59 295.04C803.027 339.2 772.256 377.61 742.88 402.897L742.878 402.899L742.876 402.9C725.458 417.886 707.906 428.725 691.694 434.428C675.904 439.983 658.778 441.493 644.827 433.42C630.548 425.16 623.052 408.822 619.858 391.608C616.561 373.844 617.189 352.097 621.887 328.369C621.887 328.369 621.887 328.368 621.887 328.367C629.333 290.73 648.205 247.063 672.678 204.787C696.641 163.387 724.898 126.437 753.071 101.425C753.071 101.425 753.071 101.424 753.072 101.424C771.61 84.9637 790.358 72.9975 807.577 66.5707C824.246 60.3489 842.449 58.3054 857.073 66.7701C857.074 66.7706 857.075 66.7712 857.076 66.7717C857.077 66.7723 857.078 66.7729 857.079 66.7735C871.28 74.992 878.324 91.1128 881.194 107.773C884.156 124.971 883.312 145.944 878.854 168.732L878.854 168.734C871.453 206.546 853.917 251.281 828.591 295.039L815.672 287.562Z" fill="#FF3E00"/>
</svg>
